<?xml version="1.0" encoding="UTF-8"?>
<svg version="1.1" xmlns="http://www.w3.org/2000/svg" width="147" height="156">
<path d="M0 0 C1.87542405 1.36600956 3.62267358 2.75371519 5.3203125 4.33203125 C4.66020774 7.17753137 3.80306284 9.85529124 2.7578125 12.58203125 C2.48839844 13.2884375 2.21898438 13.99484375 1.94140625 14.72265625 C1.73644531 15.25375 1.53148438 15.78484375 1.3203125 16.33203125 C0.0003125 16.33203125 -1.3196875 16.33203125 -2.6796875 16.33203125 C-2.6796875 15.67203125 -2.6796875 15.01203125 -2.6796875 14.33203125 C-3.54207031 14.14447266 -3.54207031 14.14447266 -4.421875 13.953125 C-6.72482118 13.31961558 -8.66166826 12.44231741 -10.8046875 11.39453125 C-24.02876665 5.43285622 -37.25896728 6.59148653 -50.6796875 11.33203125 C-54.0781623 12.96368535 -56.83245889 14.87280173 -59.6796875 17.33203125 C-60.37449219 17.91855469 -61.06929687 18.50507812 -61.78515625 19.109375 C-70.28664898 26.90905595 -75.39225309 37.0691392 -76.015625 48.62890625 C-76.04462902 50.11305498 -76.05725961 51.59760137 -76.0546875 53.08203125 C-76.05597656 53.86336426 -76.05726562 54.64469727 -76.05859375 55.44970703 C-75.95102787 61.39394436 -74.82314712 66.41984842 -72.5546875 71.94921875 C-71.6796875 74.33203125 -71.6796875 74.33203125 -71.6796875 78.33203125 C-57.27368157 73.67306763 -49.55340689 64.4762201 -41.58203125 52.06640625 C-40.89238281 50.9990625 -40.20273438 49.93171875 -39.4921875 48.83203125 C-38.87988281 47.85234375 -38.26757812 46.87265625 -37.63671875 45.86328125 C-35.51850668 43.12355786 -33.80893632 41.783491 -30.6796875 40.33203125 C-26.66564 40.40245314 -24.47642147 40.70303074 -21.3046875 43.20703125 C-16.22667059 49.84751491 -18.75426547 60.56509637 -19.6796875 68.33203125 C-12.98576425 59.3062085 -7.11777613 50.16580352 -1.6796875 40.33203125 C1.06002542 35.46217479 1.06002542 35.46217479 3.3203125 34.33203125 C5.31991262 34.29203925 7.32078492 34.28856326 9.3203125 34.33203125 C9.57606277 40.09280609 8.95636714 44.62211873 6.8203125 50.01953125 C6.55331543 50.70869629 6.28631836 51.39786133 6.01123047 52.10791016 C1.95126033 62.16856718 -3.99614857 70.885097 -10.91796875 79.2109375 C-12.71161563 81.31367555 -12.71161563 81.31367555 -14.28515625 83.609375 C-14.74535156 84.17785156 -15.20554687 84.74632813 -15.6796875 85.33203125 C-16.3396875 85.33203125 -16.9996875 85.33203125 -17.6796875 85.33203125 C-17.6796875 85.99203125 -17.6796875 86.65203125 -17.6796875 87.33203125 C-19.71229043 88.90037934 -21.73631316 90.34664968 -23.8671875 91.76953125 C-24.44533203 92.16462891 -25.02347656 92.55972656 -25.61914062 92.96679688 C-28.90954564 95.20129791 -32.24789614 97.32207435 -35.6796875 99.33203125 C-22.03610642 100.21702029 -10.49183938 96.80126097 0.3203125 88.33203125 C8.22042955 81.14733905 13.74749468 71.54912828 15.16015625 60.93359375 C15.4026902 55.4795377 15.00423648 50.08514331 14.640625 44.64233398 C14.07925066 35.07928793 15.08872824 25.80810518 16.3203125 16.33203125 C19.44731161 17.38352765 20.33937723 18.36216582 22.13671875 21.203125 C30.41137913 38.1041651 33.90237777 55.57688255 27.78515625 74.015625 C25.01534343 80.28648123 21.32927579 85.79314557 17.3203125 91.33203125 C16.83820313 92.03070313 16.35609375 92.729375 15.859375 93.44921875 C9.68150504 101.57405379 -1.1411607 108.056345 -10.6796875 111.33203125 C-11.66710937 111.6878125 -12.65453125 112.04359375 -13.671875 112.41015625 C-18.99005973 113.89042453 -24.45151984 113.66081593 -29.9296875 113.64453125 C-31.53263672 113.66870117 -31.53263672 113.66870117 -33.16796875 113.69335938 C-40.16743377 113.69761178 -47.21942215 113.28058229 -53.6796875 110.33203125 C-54.0096875 109.34203125 -54.3396875 108.35203125 -54.6796875 107.33203125 C-56.56476186 106.92808674 -58.44996783 106.52474357 -60.3359375 106.125 C-64.73036292 104.6382194 -68.481707 101.6558582 -71.6796875 98.33203125 C-71.6796875 97.34203125 -71.6796875 96.35203125 -71.6796875 95.33203125 C-70.91785156 95.36683594 -70.15601562 95.40164062 -69.37109375 95.4375 C-59.00036285 95.70939182 -49.78549535 93.77949618 -41.83203125 86.68359375 C-36.1389044 80.76080785 -32.6796875 73.61796084 -32.6796875 65.33203125 C-33.14117187 66.01007813 -33.60265625 66.688125 -34.078125 67.38671875 C-41.90958899 78.56125828 -50.07624645 88.46026596 -63.6796875 92.14453125 C-64.6696875 92.20640625 -65.6596875 92.26828125 -66.6796875 92.33203125 C-67.45183594 92.45191406 -68.22398438 92.57179688 -69.01953125 92.6953125 C-71.82566907 92.97803616 -73.93560002 93.01263431 -76.6796875 92.33203125 C-81.13299904 88.49973196 -83.66588719 83.78284652 -85.6796875 78.33203125 C-85.1846875 77.83703125 -85.1846875 77.83703125 -84.6796875 77.33203125 C-85.6696875 76.67203125 -86.6596875 76.01203125 -87.6796875 75.33203125 C-90.91612599 68.48173941 -91.22700211 61.09209032 -91.1796875 53.64453125 C-91.17396729 52.59305908 -91.16824707 51.54158691 -91.16235352 50.45825195 C-90.79957937 34.54382658 -84.87950487 21.62185463 -73.9296875 10.08203125 C-54.89377173 -7.98061966 -23.22473708 -14.4562139 0 0 Z M-79.6796875 78.33203125 C-79.6796875 78.66203125 -79.6796875 78.99203125 -79.6796875 79.33203125 C-78.0296875 79.33203125 -76.3796875 79.33203125 -74.6796875 79.33203125 C-74.6796875 79.00203125 -74.6796875 78.67203125 -74.6796875 78.33203125 C-76.3296875 78.33203125 -77.9796875 78.33203125 -79.6796875 78.33203125 Z M-50.6796875 104.33203125 C-46.6796875 105.33203125 -46.6796875 105.33203125 -46.6796875 105.33203125 Z " fill="#494948" transform="translate(109.6796875,31.66796875)"/>
<path d="M0 0 C1.87542405 1.36600956 3.62267358 2.75371519 5.3203125 4.33203125 C4.66020774 7.17753137 3.80306284 9.85529124 2.7578125 12.58203125 C2.48839844 13.2884375 2.21898438 13.99484375 1.94140625 14.72265625 C1.73644531 15.25375 1.53148438 15.78484375 1.3203125 16.33203125 C0.0003125 16.33203125 -1.3196875 16.33203125 -2.6796875 16.33203125 C-2.6796875 15.67203125 -2.6796875 15.01203125 -2.6796875 14.33203125 C-3.54207031 14.14447266 -3.54207031 14.14447266 -4.421875 13.953125 C-6.72482118 13.31961558 -8.66166826 12.44231741 -10.8046875 11.39453125 C-24.02876665 5.43285622 -37.25896728 6.59148653 -50.6796875 11.33203125 C-54.0781623 12.96368535 -56.83245889 14.87280173 -59.6796875 17.33203125 C-60.37449219 17.91855469 -61.06929687 18.50507812 -61.78515625 19.109375 C-70.23550049 26.86212984 -75.45127483 37.03804221 -75.98046875 48.55859375 C-75.99895719 50.02462821 -76.00245913 51.49091619 -75.9921875 52.95703125 C-75.99025391 54.11803345 -75.99025391 54.11803345 -75.98828125 55.30249023 C-75.86859199 62.58632959 -74.51067079 69.28056584 -72.6796875 76.33203125 C-72.6796875 76.66203125 -72.6796875 76.99203125 -72.6796875 77.33203125 C-83.73460079 77.77422778 -83.73460079 77.77422778 -87.6796875 75.33203125 C-90.86796907 68.43800288 -91.22717387 61.11912663 -91.1796875 53.64453125 C-91.17396729 52.59305908 -91.16824707 51.54158691 -91.16235352 50.45825195 C-90.79957937 34.54382658 -84.87950487 21.62185463 -73.9296875 10.08203125 C-54.89377173 -7.98061966 -23.22473708 -14.4562139 0 0 Z " fill="#383838" transform="translate(109.6796875,31.66796875)"/>
<path d="M0 0 C3.12699911 1.0514964 4.01906473 2.03013457 5.81640625 4.87109375 C14.09106663 21.77213385 17.58206527 39.2448513 11.46484375 57.68359375 C8.69503093 63.95444998 5.00896329 69.46111432 1 75 C0.51789063 75.69867188 0.03578125 76.39734375 -0.4609375 77.1171875 C-6.63880746 85.24202254 -17.4614732 91.72431375 -27 95 C-28.0003125 95.35707031 -29.000625 95.71414062 -30.03125 96.08203125 C-35.14541543 97.50916077 -40.35595887 97.2901196 -45.625 97.25 C-46.64851563 97.25773437 -47.67203125 97.26546875 -48.7265625 97.2734375 C-49.7165625 97.27085937 -50.7065625 97.26828125 -51.7265625 97.265625 C-52.61939941 97.26336914 -53.51223633 97.26111328 -54.43212891 97.25878906 C-57.25543881 96.97425697 -59.4257586 96.1663717 -62 95 C-62 94.34 -62 93.68 -62 93 C-62.66 93 -63.32 93 -64 93 C-64 92.01 -64 91.02 -64 90 C-58.07642989 86.61510279 -53.88595816 85.48985385 -47.125 85.5 C-38.5673576 85.27362127 -31.23174187 84.3261622 -25 78 C-23.41074503 76.89490704 -21.8049529 75.81339453 -20.1875 74.75 C-10.82775241 68.22942113 -3.97239316 58.96281951 -1.5625 47.625 C-0.7017306 41.15669405 -1.24662545 34.79270029 -1.6796875 28.31030273 C-2.24106184 18.74725668 -1.23158426 9.47607393 0 0 Z " fill="#383838" transform="translate(126,48)"/>
<path d="M0 0 C0.28890531 6.01998042 -0.45253113 10.42947867 -2.6875 16 C-2.95643066 16.69480469 -3.22536133 17.38960937 -3.50244141 18.10546875 C-5.50309699 23.12653728 -7.86771159 27.57794578 -11 32 C-12.37504799 29.24990402 -11.6294275 28.03055948 -10.75 25.125 C-10.49734375 24.26132813 -10.2446875 23.39765625 -9.984375 22.5078125 C-8.97329326 19.9319614 -7.69348268 18.16747376 -6 16 C-5.01802538 12.64492003 -4.87619497 11.37141509 -6 8 C-7.65 8.66 -9.3 9.32 -11 10 C-11 11.32 -11 12.64 -11 14 C-11.66 14 -12.32 14 -13 14 C-13 15.32 -13 16.64 -13 18 C-13.66 18 -14.32 18 -15 18 C-15 18.66 -15 19.32 -15 20 C-15.66 20 -16.32 20 -17 20 C-17 21.98 -17 23.96 -17 26 C-17.66 26 -18.32 26 -19 26 C-19.226875 26.721875 -19.45375 27.44375 -19.6875 28.1875 C-21.86594658 32.8555998 -25.22299579 36.0538131 -30 38 C-30 38.66 -30 39.32 -30 40 C-31.32 40 -32.64 40 -34 40 C-33.85957123 38.35369672 -33.71250671 36.70795821 -33.5625 35.0625 C-33.44068359 33.68771484 -33.44068359 33.68771484 -33.31640625 32.28515625 C-33 30 -33 30 -32 29 C-31.84379445 27.58672053 -31.74943827 26.1664541 -31.68359375 24.74609375 C-31.64169922 23.89208984 -31.59980469 23.03808594 -31.55664062 22.15820312 C-31.51732422 21.26037109 -31.47800781 20.36253906 -31.4375 19.4375 C-31.39431641 18.53580078 -31.35113281 17.63410156 -31.30664062 16.70507812 C-31.20021858 14.47021515 -31.09820012 12.23523692 -31 10 C-30.34 10.33 -29.68 10.66 -29 11 C-26.59428776 18.21713672 -28.11482982 26.5708931 -29 34 C-22.30607675 24.97417725 -16.43808863 15.83377227 -11 6 C-7.82740812 0.36069854 -6.46867263 -0.14062332 0 0 Z " fill="#B6B6B3" transform="translate(119,66)"/>
<path d="M0 0 C0.33 0 0.66 0 1 0 C1.06058594 1.03640625 1.12117188 2.0728125 1.18359375 3.140625 C1.26803371 4.51042873 1.35267997 5.88021975 1.4375 7.25 C1.47681641 7.93191406 1.51613281 8.61382812 1.55664062 9.31640625 C1.78950773 13.19298205 1.78950773 13.19298205 2.5234375 16.99609375 C3.29319658 20.23286759 3.184445 23.50393394 3.1875 26.8125 C3.19974609 27.49892578 3.21199219 28.18535156 3.22460938 28.89257812 C3.24099059 34.66422684 1.8222723 39.53318311 0 45 C-0.66 45 -1.32 45 -2 45 C-2 45.99 -2 46.98 -2 48 C-2.66 48 -3.32 48 -4 48 C-4 48.99 -4 49.98 -4 51 C-4.66 51 -5.32 51 -6 51 C-6 51.99 -6 52.98 -6 54 C-9.58362007 57.99266851 -13.77073595 61.52926948 -19 63 C-17.948125 61.9790625 -17.948125 61.9790625 -16.875 60.9375 C-7.55339996 51.51086785 -0.61390206 41.66662927 0 28 C-0.08397669 23.48401952 -0.31104663 18.97846631 -0.62915039 14.47314453 C-0.97398588 9.44276893 -0.92746684 4.96228608 0 0 Z " fill="#919190" transform="translate(125,61)"/>
<path d="M0 0 C-7.48850031 4.4700079 -14.07615148 5.59936036 -22.62841797 5.63452148 C-27.54247739 5.69947683 -30.63493267 6.50378903 -35 9 C-35.66 9 -36.32 9 -37 9 C-37 9.99 -37 10.98 -37 12 C-36.34 12 -35.68 12 -35 12 C-35 12.66 -35 13.32 -35 14 C-32.525 14.495 -32.525 14.495 -30 15 C-32.86687092 16.43343546 -34.50563683 15.56303792 -37.5625 14.75 C-38.55378906 14.49734375 -39.54507813 14.2446875 -40.56640625 13.984375 C-41.36949219 13.65953125 -42.17257813 13.3346875 -43 13 C-43.33 12.01 -43.66 11.02 -44 10 C-46.97 9.505 -46.97 9.505 -50 9 C-50 8.67 -50 8.34 -50 8 C-47.43786446 7.35269196 -44.87531515 6.70710712 -42.3125 6.0625 C-41.2306543 5.78889648 -41.2306543 5.78889648 -40.12695312 5.50976562 C-33.81127411 3.92363619 -27.90142345 2.89040271 -21.375 2.625 C-15.29450623 2.33053496 -9.85514246 1.4387025 -4.0390625 -0.4765625 C-2 -1 -2 -1 0 0 Z M-40 7 C-36 8 -36 8 -36 8 Z " fill="#888888" transform="translate(99,129)"/>
<path d="M0 0 C0.66 0.33 1.32 0.66 2 1 C4.40571224 8.21713672 2.88517018 16.5708931 2 24 C6.41309542 20.84778899 9.00793014 17.44536093 12 13 C12.66 13.33 13.32 13.66 14 14 C14 14.66 14 15.32 14 16 C13.34 16 12.68 16 12 16 C11.773125 16.721875 11.54625 17.44375 11.3125 18.1875 C9.13405342 22.8555998 5.77700421 26.0538131 1 28 C1 28.66 1 29.32 1 30 C-0.32 30 -1.64 30 -3 30 C-2.85957123 28.35369672 -2.71250671 26.70795821 -2.5625 25.0625 C-2.48128906 24.14597656 -2.40007812 23.22945312 -2.31640625 22.28515625 C-2 20 -2 20 -1 19 C-0.84379445 17.58672053 -0.74943827 16.1664541 -0.68359375 14.74609375 C-0.64169922 13.89208984 -0.59980469 13.03808594 -0.55664062 12.15820312 C-0.51732422 11.26037109 -0.47800781 10.36253906 -0.4375 9.4375 C-0.39431641 8.53580078 -0.35113281 7.63410156 -0.30664062 6.70507812 C-0.20021858 4.47021515 -0.09820012 2.23523692 0 0 Z " fill="#61615F" transform="translate(88,76)"/>
<path d="M0 0 C5.55633631 8.33450447 3.82082049 22.41509303 2.421875 31.93359375 C0.1489682 41.03555234 -4.93201554 52.62134369 -13 58 C-12.690625 57.401875 -12.38125 56.80375 -12.0625 56.1875 C-10.89790296 53.91043228 -10.89790296 53.91043228 -10 51 C-9.34 51 -8.68 51 -8 51 C-6.91057413 48.35425145 -5.90511248 45.71533744 -5 43 C-2.72399865 36.17199596 -2.72399865 36.17199596 -0.94970703 33.29980469 C0.38019273 30.07932764 0.22380753 27.30451871 0.1953125 23.828125 C0.1924826 23.1457074 0.18965271 22.46328979 0.18673706 21.76019287 C0.17558098 19.58994693 0.15048557 17.42012029 0.125 15.25 C0.11496426 13.77474556 0.10583944 12.29948463 0.09765625 10.82421875 C0.07565687 7.21601058 0.04115883 3.60804625 0 0 Z " fill="#8E8E8D" transform="translate(137,67)"/>
<path d="M0 0 C0 0.66 0 1.32 0 2 C-1.12277344 1.71125 -2.24554688 1.4225 -3.40234375 1.125 C-15.49208445 -1.91094629 -23.93375314 -2.78287154 -36.1796875 0.34375 C-39 1 -39 1 -42 1 C-42 0.01 -42 -0.98 -42 -2 C-28.70259528 -5.71090364 -12.22035994 -8.14690663 0 0 Z " fill="#AAAAAA" transform="translate(101,41)"/>
<path d="M0 0 C0.66 0.33 1.32 0.66 2 1 C1.54109375 1.4846875 1.0821875 1.969375 0.609375 2.46875 C-7.93169815 11.79933411 -11.4017189 21.24169261 -11.25 33.875 C-11.24613281 34.65858887 -11.24226563 35.44217773 -11.23828125 36.24951172 C-11.1526822 41.99534774 -10.56207302 47.44906194 -9 53 C-11 52 -11 52 -12.11328125 48.66015625 C-13.33922007 43.27250935 -13.2549542 37.93679269 -13.1875 32.4375 C-13.18685547 31.43525391 -13.18621094 30.43300781 -13.18554688 29.40039062 C-13.15453351 24.16602322 -12.90414762 19.15725803 -12 14 C-11.34 14 -10.68 14 -10 14 C-10 12.68 -10 11.36 -10 10 C-9.34 10 -8.68 10 -8 10 C-8 9.34 -8 8.68 -8 8 C-7.34 8 -6.68 8 -6 8 C-6 7.01 -6 6.02 -6 5 C-4.17806158 3.0750353 -2.10764717 1.62464469 0 0 Z " fill="#B1B1B1" transform="translate(45,51)"/>
<path d="M0 0 C2 2 2 2 2 6 C2.68707031 5.71125 3.37414062 5.4225 4.08203125 5.125 C4.98308594 4.75375 5.88414063 4.3825 6.8125 4 C7.70582031 3.62875 8.59914063 3.2575 9.51953125 2.875 C12 2 12 2 15 2 C12.210317 5.23015926 9.31390372 6.81633442 5.00073242 7.15869141 C2.72639984 7.19641671 0.46157034 7.17456063 -1.8125 7.125 C-2.99489258 7.11146484 -2.99489258 7.11146484 -4.20117188 7.09765625 C-6.13424666 7.07422504 -8.0671638 7.03835838 -10 7 C-10.33 7.66 -10.66 8.32 -11 9 C-11 7.68 -11 6.36 -11 5 C-11.66 4.34 -12.32 3.68 -13 3 C-12.34 3.165 -11.68 3.33 -11 3.5 C-7.26900206 4.12183299 -3.78126622 4.06408926 0 4 C0 2.68 0 1.36 0 0 Z " fill="#A0A0A0" transform="translate(36,104)"/>
<path d="M0 0 C-1.81817001 2.31459868 -2.75615543 2.95377187 -5.69921875 3.51171875 C-6.68535156 3.56972656 -7.67148438 3.62773437 -8.6875 3.6875 C-9.68136719 3.75324219 -10.67523438 3.81898437 -11.69921875 3.88671875 C-12.45847656 3.92410156 -13.21773437 3.96148438 -14 4 C-14.33 5.32 -14.66 6.64 -15 8 C-17.97 8 -20.94 8 -24 8 C-20.74335405 4.74335405 -17.93640614 3.67925212 -13.6875 2.3125 C-12.71006836 1.97508789 -12.71006836 1.97508789 -11.71289062 1.63085938 C-7.68834564 0.30545867 -4.22760958 -0.24251404 0 0 Z " fill="#707070" transform="translate(73,25)"/>
<path d="M0 0 C0.66 0.33 1.32 0.66 2 1 C2.97771193 3.9331358 3.13419011 5.88178994 3.125 8.9375 C3.12757812 9.79214844 3.13015625 10.64679688 3.1328125 11.52734375 C3.00855265 13.84076979 2.56846854 15.76641103 2 18 C1.93543121 19.41534778 1.91388961 20.83337689 1.9375 22.25 C1.958125 23.4875 1.97875 24.725 2 26 C1.34 26 0.68 26 0 26 C-0.33 26.66 -0.66 27.32 -1 28 C-0.67 18.76 -0.34 9.52 0 0 Z " fill="#A5A5A4" transform="translate(88,76)"/>
<path d="M0 0 C1.09658936 3.28976808 0.79953138 4.71303767 0 8 C-0.66 8 -1.32 8 -2 8 C-2 8.66 -2 9.32 -2 10 C-2.66 10 -3.32 10 -4 10 C-4 10.99 -4 11.98 -4 13 C-5.61974559 14.71230248 -7.2958946 16.37163262 -9 18 C-10.71439073 19.9645991 -12.35359305 21.97727146 -14 24 C-14 20.11263634 -12.72421534 18.99499937 -10.375 15.9375 C-6.53701365 10.8156321 -3.17856425 5.55044742 0 0 Z " fill="#AFAFAD" transform="translate(106,76)"/>
<path d="M0 0 C0.5775 0.226875 1.155 0.45375 1.75 0.6875 C1.75 3.3275 1.75 5.9675 1.75 8.6875 C0.76 8.3575 -0.23 8.0275 -1.25 7.6875 C-1.25 6.6975 -1.25 5.7075 -1.25 4.6875 C-2.9 5.3475 -4.55 6.0075 -6.25 6.6875 C-6.25 8.0075 -6.25 9.3275 -6.25 10.6875 C-6.91 10.3575 -7.57 10.0275 -8.25 9.6875 C-6.79726368 3.27124793 -6.79726368 3.27124793 -4.375 0.6875 C-2.25 -0.3125 -2.25 -0.3125 0 0 Z " fill="#9A9A96" transform="translate(114.25,69.3125)"/>
<path d="M0 0 C0 3.96009225 -1.40780183 5.14520759 -3.875 8.1875 C-4.95394531 9.53908203 -4.95394531 9.53908203 -6.0546875 10.91796875 C-6.69664063 11.60503906 -7.33859375 12.29210937 -8 13 C-8.66 13 -9.32 13 -10 13 C-10 13.66 -10 14.32 -10 15 C-10.66 15 -11.32 15 -12 15 C-12 13.02 -12 11.04 -12 9 C-11.34 8.67 -10.68 8.34 -10 8 C-10 8.66 -10 9.32 -10 10 C-7.7456405 9.10031217 -7.7456405 9.10031217 -6.5 6.4375 C-6.005 5.633125 -5.51 4.82875 -5 4 C-4.34 4 -3.68 4 -3 4 C-2.67 3.01 -2.34 2.02 -2 1 C-1.34 0.67 -0.68 0.34 0 0 Z " fill="#6C6C6C" transform="translate(102,104)"/>
<path d="M0 0 C1.32 0 2.64 0 4 0 C4.19392201 5.52677733 3.7479503 9.75614911 2 15 C1.34 15 0.68 15 0 15 C-0.33 15.99 -0.66 16.98 -1 18 C-2 16 -2 16 -1.44140625 13.9765625 C-1.15136719 13.20054688 -0.86132812 12.42453125 -0.5625 11.625 C0.65660833 8.35582162 1 6.61643023 1 3 C0.34 3.66 -0.32 4.32 -1 5 C-0.67 3.35 -0.34 1.7 0 0 Z " fill="#7C7C7C" transform="translate(76,94)"/>
<path d="M0 0 C0.66 0.33 1.32 0.66 2 1 C1.37351562 1.58007812 0.74703125 2.16015625 0.1015625 2.7578125 C-0.71570312 3.53898437 -1.53296875 4.32015625 -2.375 5.125 C-3.59316406 6.27355469 -3.59316406 6.27355469 -4.8359375 7.4453125 C-7.19015721 10.22448161 -8.07814775 12.50506564 -9 16 C-9.99 16 -10.98 16 -12 16 C-12 16.66 -12 17.32 -12 18 C-12.66 18 -13.32 18 -14 18 C-11.93482916 10.65717034 -5.33168494 5.17011873 0 0 Z " fill="#959595" transform="translate(41,37)"/>
<path d="M0 0 C9.88338637 -0.39475064 20.46845161 -0.68769893 29 5 C29 5.66 29 6.32 29 7 C25.37 6.01 21.74 5.02 18 4 C18 3.34 18 2.68 18 2 C12.06 1.67 6.12 1.34 0 1 C0 0.67 0 0.34 0 0 Z " fill="#5E5E5E" transform="translate(72,36)"/>
<path d="M0 0 C1.04449911 3.13349732 0.93423645 3.98968256 0 7 C-0.66 7 -1.32 7 -2 7 C-2 7.99 -2 8.98 -2 10 C-5.58362007 13.99266851 -9.77073595 17.52926948 -15 19 C-13.948125 17.9790625 -13.948125 17.9790625 -12.875 16.9375 C-7.68503036 11.71812543 -3.45815524 6.51729257 0 0 Z " fill="#A1A1A1" transform="translate(121,105)"/>
<path d="M0 0 C0.33 0.66 0.66 1.32 1 2 C0.401875 2.845625 -0.19625 3.69125 -0.8125 4.5625 C-2.39924068 6.9148708 -3.35083642 8.86946418 -4.4375 11.5625 C-6.11108239 15.24438126 -8.00382485 17.32773568 -11 20 C-11.66 19.67 -12.32 19.34 -13 19 C-12.56429687 18.38253906 -12.12859375 17.76507813 -11.6796875 17.12890625 C-7.70246352 11.47298384 -3.80635134 5.77226906 0 0 Z " fill="#9A9A9A" transform="translate(72,78)"/>
<path d="M0 0 C-3.63719605 2.42479736 -5.85703482 2.38662577 -10.1875 2.625 C-11.45980469 2.69976562 -12.73210938 2.77453125 -14.04296875 2.8515625 C-15.01878906 2.90054688 -15.99460937 2.94953125 -17 3 C-16.01 4.485 -16.01 4.485 -15 6 C-18.16115776 4.63016497 -18.9927092 4.0109362 -21 1 C-17.31363567 -0.0723969 -14.02685886 -0.04183175 -10.21875 0.0625 C-0.64460432 -0.20719424 -0.64460432 -0.20719424 0 0 Z " fill="#8F8F8F" transform="translate(58,127)"/>
<path d="M0 0 C0.99 0.33 1.98 0.66 3 1 C1.27744283 2.46613447 -0.45333784 3.92261056 -2.1875 5.375 C-3.15042969 6.18710938 -4.11335938 6.99921875 -5.10546875 7.8359375 C-7.73115596 9.79900189 -9.91175041 10.9724654 -13 12 C-12.34 11.01 -11.68 10.02 -11 9 C-10.34 9 -9.68 9 -9 9 C-9 8.01 -9 7.02 -9 6 C-7.68 6 -6.36 6 -5 6 C-5 5.01 -5 4.02 -5 3 C-3.35 2.67 -1.7 2.34 0 2 C0 1.34 0 0.68 0 0 Z " fill="#7A7A7A" transform="translate(121,126)"/>
<path d="M0 0 C1.32 0.66 2.64 1.32 4 2 C4 3.32 4 4.64 4 6 C2.02 6.99 2.02 6.99 0 8 C-0.99 6.68 -1.98 5.36 -3 4 C-2.01 2.68 -1.02 1.36 0 0 Z " fill="#9B9B9B" transform="translate(113,55)"/>
<path d="M0 0 C5.34844008 0.53484401 9.35796103 2.46690767 14 5 C14 5.33 14 5.66 14 6 C12.35 6 10.7 6 9 6 C9 5.34 9 4.68 9 4 C6.36 3.67 3.72 3.34 1 3 C0.67 2.01 0.34 1.02 0 0 Z " fill="#808080" transform="translate(96,27)"/>
<path d="M0 0 C0 1.32 0 2.64 0 4 C-1.32 4.33 -2.64 4.66 -4 5 C-4.33 4.01 -4.66 3.02 -5 2 C-7.97 1.505 -7.97 1.505 -11 1 C-11 0.67 -11 0.34 -11 0 C-6.98195309 -0.84098656 -3.98196457 -1.05404945 0 0 Z " fill="#8D8D8D" transform="translate(60,137)"/>
<path d="M0 0 C0.33 0.66 0.66 1.32 1 2 C0.35330586 3.34313399 -0.31903578 4.67391178 -1 6 C-1.309375 7.175625 -1.61875 8.35125 -1.9375 9.5625 C-2.92005977 12.74136983 -3.43783652 14.0201464 -6 16 C-5.53118166 10.37417987 -4.15551956 4.15551956 0 0 Z " fill="#868686" transform="translate(113,82)"/>
<path d="M0 0 C4.95 0 9.9 0 15 0 C15 0.33 15 0.66 15 1 C11.04 1 7.08 1 3 1 C3 2.98 3 4.96 3 7 C1.5 5.75 1.5 5.75 0 4 C0 2.68 0 1.36 0 0 Z " fill="#6D6D6D" transform="translate(26,111)"/>
<path d="M0 0 C0.33 0 0.66 0 1 0 C0.88487847 1.72985242 0.75744323 3.45888751 0.625 5.1875 C0.52058594 6.63189453 0.52058594 6.63189453 0.4140625 8.10546875 C-0.00215853 11.01508938 -0.79874096 13.32890774 -2 16 C-2.33 16 -2.66 16 -3 16 C-2.57910004 10.39538469 -2.08386889 5.27913453 0 0 Z " fill="#818181" transform="translate(22,63)"/>
<path d="M0 0 C-0.33 1.32 -0.66 2.64 -1 4 C-3.97 4 -6.94 4 -10 4 C-6.32379932 0.32379932 -5.15439554 0 0 0 Z " fill="#5F5F5F" transform="translate(59,29)"/>
<path d="M0 0 C2 1 2 1 3.125 4.125 C3.97755199 7.90058738 4.15729024 11.14638912 4 15 C0.89809455 10.34714182 -0.33846504 5.58467324 0 0 Z " fill="#828282" transform="translate(19,92)"/>
<path d="M0 0 C0.66 0.99 1.32 1.98 2 3 C1.484375 2.835 0.96875 2.67 0.4375 2.5 C-3.87938348 1.61448544 -7.59406264 1.13480778 -11.4375 3.5 C-11.953125 3.995 -12.46875 4.49 -13 5 C-12.06788763 2.66971908 -11.30996602 1.24108468 -9.3125 -0.3125 C-5.93318526 -1.31716114 -3.39233233 -0.8166726 0 0 Z " fill="#B4B4B4" transform="translate(86,73)"/>
<path d="M0 0 C3.63 0 7.26 0 11 0 C9.515 1.485 9.515 1.485 8 3 C7.01 2.67 6.02 2.34 5 2 C5 2.66 5 3.32 5 4 C1.125 2.25 1.125 2.25 0 0 Z " fill="#404040" transform="translate(40,129)"/>
<path d="M0 0 C-1.33333333 0.66666667 -2.66666667 1.33333333 -4 2 C-5.5159375 2.804375 -5.5159375 2.804375 -7.0625 3.625 C-10 5 -10 5 -13 5 C-13 4.01 -13 3.02 -13 2 C-4.57142857 -0.28571429 -4.57142857 -0.28571429 0 0 Z " fill="#727272" transform="translate(72,37)"/>
<path d="M0 0 C0.66 0 1.32 0 2 0 C2 0.99 2 1.98 2 3 C2.66 3 3.32 3 4 3 C4 3.66 4 4.32 4 5 C5.65 5.33 7.3 5.66 9 6 C5.79937313 7.60031344 3.27728194 6.03173691 0 5 C0 4.34 0 3.68 0 3 C-0.66 2.67 -1.32 2.34 -2 2 C-1.34 1.34 -0.68 0.68 0 0 Z " fill="#646464" transform="translate(60,138)"/>
<path d="M0 0 C1.32 0.66 2.64 1.32 4 2 C3.67 3.32 3.34 4.64 3 6 C1.68 6 0.36 6 -1 6 C-1.625 4.125 -1.625 4.125 -2 2 C-1.34 1.34 -0.68 0.68 0 0 Z " fill="#9C9C9C" transform="translate(117,44)"/>
<path d="M0 0 C0.68707555 2.49064888 1 4.37886292 1 7 C1.66 7.33 2.32 7.66 3 8 C2.67 8.99 2.34 9.98 2 11 C0.68 11 -0.64 11 -2 11 C-1.85957123 9.35369672 -1.71250671 7.70795821 -1.5625 6.0625 C-1.48128906 5.14597656 -1.40007812 4.22945313 -1.31640625 3.28515625 C-1 1 -1 1 0 0 Z " fill="#6D6D6C" transform="translate(87,95)"/>
<path d="M0 0 C0.66 0 1.32 0 2 0 C1.34 3.63 0.68 7.26 0 11 C-0.66 11 -1.32 11 -2 11 C-2 8.69 -2 6.38 -2 4 C-1.34 4 -0.68 4 0 4 C0 2.68 0 1.36 0 0 Z " fill="#737373" transform="translate(35,61)"/>
<path d="M0 0 C1.32 0 2.64 0 4 0 C3.67 2.31 3.34 4.62 3 7 C2.34 5.68 1.68 4.36 1 3 C0.34 3.66 -0.32 4.32 -1 5 C-0.67 3.35 -0.34 1.7 0 0 Z " fill="#828282" transform="translate(76,94)"/>
<path d="M0 0 C0.33 0.66 0.66 1.32 1 2 C-1.31 2 -3.62 2 -6 2 C-6 2.66 -6 3.32 -6 4 C-7.32 3.67 -8.64 3.34 -10 3 C-7.29536552 -0.8183075 -4.37912428 -0.24787496 0 0 Z " fill="#606060" transform="translate(84,74)"/>
<path d="M0 0 C0.33 1.32 0.66 2.64 1 4 C-0.32 4.33 -1.64 4.66 -3 5 C-3 5.66 -3 6.32 -3 7 C-3.66 7 -4.32 7 -5 7 C-3.75023244 3.34683329 -3.32901247 2.21934164 0 0 Z " fill="#6B6B6B" transform="translate(32,48)"/>
<path d="M0 0 C0.99 0 1.98 0 3 0 C3 2.31 3 4.62 3 7 C2.01 6.67 1.02 6.34 0 6 C-0.38218767 4.34385343 -0.71395102 2.67542976 -1 1 C-0.67 0.67 -0.34 0.34 0 0 Z " fill="#83847F" transform="translate(113,71)"/>
<path d="M0 0 C1.258125 -0.04125 2.51625 -0.0825 3.8125 -0.125 C4.52019531 -0.14820313 5.22789063 -0.17140625 5.95703125 -0.1953125 C8 0 8 0 11 2 C11 2.66 11 3.32 11 4 C7.37 3.01 3.74 2.02 0 1 C0 0.67 0 0.34 0 0 Z " fill="#919191" transform="translate(90,39)"/>
<path d="M0 0 C0 3 0 3 -2.5 5.6875 C-3.325 6.450625 -4.15 7.21375 -5 8 C-5 6.68 -5 5.36 -5 4 C-4.34 4 -3.68 4 -3 4 C-2.67 3.01 -2.34 2.02 -2 1 C-1.34 0.67 -0.68 0.34 0 0 Z " fill="#808080" transform="translate(102,104)"/>
<path d="M0 0 C1.32 0 2.64 0 4 0 C4 1.32 4 2.64 4 4 C2.35 3.67 0.7 3.34 -1 3 C-0.67 2.01 -0.34 1.02 0 0 Z " fill="#ABABAB" transform="translate(126,38)"/>
<path d="M0 0 C1.04449911 3.13349732 0.93423645 3.98968256 0 7 C-0.66 7 -1.32 7 -2 7 C-2 7.99 -2 8.98 -2 10 C-2.66 9.67 -3.32 9.34 -4 9 C-1.125 2.25 -1.125 2.25 0 0 Z " fill="#8E8E8E" transform="translate(121,105)"/>
<path d="M0 0 C0.66 0 1.32 0 2 0 C2 1.65 2 3.3 2 5 C1.34 5 0.68 5 0 5 C0 5.99 0 6.98 0 8 C-0.66 7.67 -1.32 7.34 -2 7 C-1.34 4.69 -0.68 2.38 0 0 Z " fill="#70706E" transform="translate(123,101)"/>
<path d="M0 0 C0.99 0.33 1.98 0.66 3 1 C3 2.32 3 3.64 3 5 C1.68 4.67 0.36 4.34 -1 4 C-0.67 2.68 -0.34 1.36 0 0 Z " fill="#CDCDCD" transform="translate(127,26)"/>
<path d="M0 0 C1.98 0.495 1.98 0.495 4 1 C3.67 1.99 3.34 2.98 3 4 C1.68 3.67 0.36 3.34 -1 3 C-0.67 2.01 -0.34 1.02 0 0 Z " fill="#BFBFBF" transform="translate(119,31)"/>
</svg>
